<?xml version="1.0" standalone="no"?>
<!DOCTYPE svg PUBLIC "-//W3C//DTD SVG 20010904//EN"
 "http://www.w3.org/TR/2001/REC-SVG-20010904/DTD/svg10.dtd">
<svg version="1.0" xmlns="http://www.w3.org/2000/svg"
 width="1200.000000pt" height="1200.000000pt" viewBox="0 0 1200.000000 1200.000000"
 preserveAspectRatio="xMidYMid meet">
<metadata>
Created by potrace 1.14, written by Peter Selinger 2001-2017
</metadata>
<g transform="translate(0.000000,1200.000000) scale(0.100000,-0.100000)"
fill="#000000" stroke="none">
<path d="M5695 11994 c-2080 -114 -3933 -1271 -4945 -3088 -399 -717 -640
-1501 -727 -2366 -24 -246 -24 -834 0 -1080 101 -1007 410 -1899 942 -2724
l55 -86 1534 0 1533 0 7 -52 c8 -69 8 -747 0 -826 l-7 -62 -1140 -2 -1141 -3
120 -109 c474 -435 984 -777 1540 -1035 1612 -747 3456 -747 5068 0 556 258
1066 600 1540 1035 l120 109 -1142 3 -1142 2 0 470 0 470 1253 0 c688 1 1380
3 1537 6 l285 5 73 112 c443 684 753 1512 876 2342 74 501 85 1038 31 1533
-182 1666 -1045 3170 -2389 4169 -886 658 -1907 1049 -3026 1158 -158 15 -698
27 -855 19z m1429 -1946 c8 -18 21 -80 30 -138 23 -141 83 -424 102 -480 29
-80 83 -304 84 -341 0 -86 191 -694 279 -889 28 -63 51 -129 51 -146 0 -39
-20 -58 -197 -186 -227 -164 -723 -540 -905 -684 -819 -652 -1283 -1255 -1407
-1829 -30 -139 -44 -288 -36 -402 6 -93 5 -104 -11 -110 -28 -10 -74 51 -147
200 -143 289 -207 540 -207 812 0 415 154 732 721 1485 277 367 313 419 507
731 349 562 920 1606 1064 1947 30 71 51 79 72 30z m-2886 -423 c147 -277 344
-579 547 -840 187 -240 257 -322 448 -527 85 -91 157 -177 161 -191 3 -14 2
-36 -3 -49 -20 -54 -329 -461 -357 -472 -26 -10 -43 6 -122 112 -352 476 -606
993 -736 1502 -47 184 -74 318 -86 433 -14 122 -7 139 53 135 l42 -3 53 -100z
m-2171 -324 c779 -391 1446 -914 2019 -1581 241 -281 534 -706 536 -777 1 -18
-27 -86 -71 -174 -108 -218 -180 -431 -230 -674 -19 -92 -51 -313 -51 -353 0
-39 -42 29 -108 178 -538 1201 -1262 2281 -2194 3272 -93 98 -168 184 -168
191 0 46 29 37 267 -82z m7424 -77 c-168 -682 -624 -1329 -1385 -1962 -210
-176 -371 -300 -786 -607 -636 -471 -905 -688 -1115 -899 -141 -142 -216 -235
-294 -365 -156 -259 -183 -533 -76 -760 121 -255 369 -444 665 -508 113 -24
348 -24 475 1 231 45 489 157 725 314 196 131 283 204 486 406 256 257 354
378 892 1101 440 591 671 846 1032 1141 187 153 443 300 641 369 91 32 119 25
119 -27 0 -45 -33 -91 -108 -149 -107 -83 -389 -373 -492 -507 -190 -247 -288
-396 -605 -917 -407 -671 -602 -936 -893 -1217 -455 -438 -1020 -681 -1807
-775 -208 -25 -825 -25 -1065 0 -1094 113 -1692 376 -2315 1018 -283 292 -480
548 -940 1224 -292 429 -395 576 -546 775 -343 454 -650 761 -981 983 -59 40
-107 76 -108 80 -1 25 372 -22 556 -68 177 -45 298 -91 489 -185 460 -226 812
-550 1152 -1060 120 -180 175 -273 417 -698 399 -701 567 -943 850 -1228 305
-306 649 -504 1003 -578 107 -23 289 -38 361 -30 l63 6 -63 37 c-133 78 -279
253 -350 422 -248 590 35 1323 808 2095 325 324 620 558 1409 1119 687 488
1010 740 1285 1001 198 188 376 380 481 519 23 30 43 54 45 52 2 -2 -9 -57
-25 -123z m1497 -716 c21 -21 13 -49 -20 -81 -18 -16 -99 -83 -179 -148 -192
-154 -235 -195 -476 -448 -651 -682 -1116 -1302 -1517 -2018 -40 -73 -63 -103
-75 -103 -29 0 -33 25 -20 134 28 232 10 655 -37 879 -17 83 -18 131 -3 160
41 78 437 493 649 679 253 223 638 515 864 655 284 175 566 284 787 302 8 0
20 -4 27 -11z m-2755 -1786 c39 -43 95 -234 123 -422 64 -431 -78 -940 -362
-1293 -88 -110 -340 -355 -441 -429 -79 -58 -237 -140 -333 -172 -236 -79
-500 -74 -677 11 -84 40 -174 133 -202 207 -45 120 -46 272 -3 396 68 197 210
369 507 614 386 319 1091 903 1205 1000 71 60 134 106 146 106 11 0 28 -8 37
-18z m-620 -4234 c4 -95 7 -231 7 -303 0 -71 -3 -208 -7 -302 l-6 -173 -1544
0 -1543 0 0 468 c0 258 3 472 7 475 3 4 698 7 1543 7 l1537 0 6 -172z"/>
</g>
</svg>
